<?xml version="1.0" encoding="UTF-8" standalone="no"?>
<!-- Created with Inkscape (http://www.inkscape.org/) -->

<svg
   xmlns:dc="http://purl.org/dc/elements/1.1/"
   xmlns:cc="http://creativecommons.org/ns#"
   xmlns:rdf="http://www.w3.org/1999/02/22-rdf-syntax-ns#"
   xmlns:svg="http://www.w3.org/2000/svg"
   xmlns="http://www.w3.org/2000/svg"
   xmlns:sodipodi="http://sodipodi.sourceforge.net/DTD/sodipodi-0.dtd"
   xmlns:inkscape="http://www.inkscape.org/namespaces/inkscape"
   width="744.09448819"
   height="1052.3622047"
   id="svg2"
   version="1.1"
   inkscape:version="0.47 r22583"
   sodipodi:docname="info.svg">
  <defs
     id="defs4">
    <inkscape:perspective
       sodipodi:type="inkscape:persp3d"
       inkscape:vp_x="0 : 526.18109 : 1"
       inkscape:vp_y="0 : 1000 : 0"
       inkscape:vp_z="744.09448 : 526.18109 : 1"
       inkscape:persp3d-origin="372.04724 : 350.78739 : 1"
       id="perspective10" />
    <inkscape:perspective
       id="perspective3608"
       inkscape:persp3d-origin="0.5 : 0.33333333 : 1"
       inkscape:vp_z="1 : 0.5 : 1"
       inkscape:vp_y="0 : 1000 : 0"
       inkscape:vp_x="0 : 0.5 : 1"
       sodipodi:type="inkscape:persp3d" />
    <inkscape:perspective
       id="perspective3640"
       inkscape:persp3d-origin="0.5 : 0.33333333 : 1"
       inkscape:vp_z="1 : 0.5 : 1"
       inkscape:vp_y="0 : 1000 : 0"
       inkscape:vp_x="0 : 0.5 : 1"
       sodipodi:type="inkscape:persp3d" />
    <inkscape:perspective
       id="perspective3640-4"
       inkscape:persp3d-origin="0.5 : 0.33333333 : 1"
       inkscape:vp_z="1 : 0.5 : 1"
       inkscape:vp_y="0 : 1000 : 0"
       inkscape:vp_x="0 : 0.5 : 1"
       sodipodi:type="inkscape:persp3d" />
    <inkscape:perspective
       id="perspective3682"
       inkscape:persp3d-origin="0.5 : 0.33333333 : 1"
       inkscape:vp_z="1 : 0.5 : 1"
       inkscape:vp_y="0 : 1000 : 0"
       inkscape:vp_x="0 : 0.5 : 1"
       sodipodi:type="inkscape:persp3d" />
  </defs>
  <sodipodi:namedview
     id="base"
     pagecolor="#ffffff"
     bordercolor="#666666"
     borderopacity="1.0"
     inkscape:pageopacity="0.0"
     inkscape:pageshadow="2"
     inkscape:zoom="2.8"
     inkscape:cx="140.80757"
     inkscape:cy="761.58083"
     inkscape:document-units="px"
     inkscape:current-layer="layer1"
     showgrid="false"
     inkscape:window-width="1123"
     inkscape:window-height="1097"
     inkscape:window-x="421"
     inkscape:window-y="26"
     inkscape:window-maximized="0" />
  <metadata
     id="metadata7">
    <rdf:RDF>
      <cc:Work
         rdf:about="">
        <dc:format>image/svg+xml</dc:format>
        <dc:type
           rdf:resource="http://purl.org/dc/dcmitype/StillImage" />
        <dc:title></dc:title>
      </cc:Work>
    </rdf:RDF>
  </metadata>
  <g
     inkscape:label="Layer 1"
     inkscape:groupmode="layer"
     id="layer1">
    <path
       style="opacity:0.95999995;fill:#414141;fill-opacity:1;fill-rule:nonzero;stroke:none"
       d="M 180.78125 203.1875 C 166.83395 203.1875 155.53125 214.4902 155.53125 228.4375 C 155.53125 242.3848 166.83395 253.6875 180.78125 253.6875 C 194.72855 253.6875 206.0625 242.3848 206.0625 228.4375 C 206.0625 214.4902 194.72855 203.1875 180.78125 203.1875 z M 179.5625 207.6875 C 180.07291 207.68754 180.90104 208.39587 182.03125 209.78125 C 182.66926 210.56514 182.93489 211.18233 182.84375 211.65625 C 182.73437 212.22139 182.17708 212.50004 181.15625 212.5 C 179.33333 212.50004 177.88802 212.00785 176.8125 210.96875 C 176.70313 210.85941 176.625 210.64848 176.625 210.375 C 176.625 209.59118 176.9349 208.96098 177.5 208.46875 C 178.08333 207.95837 178.76041 207.68754 179.5625 207.6875 z M 180.875 218.15625 C 181.45833 218.15628 182.11458 218.50784 182.84375 219.21875 L 183.625 226.28125 C 184.51822 234.52085 184.93749 240.56772 184.9375 244.46875 C 184.93749 246.05469 184.8776 247.32031 184.75 248.25 C 184.34895 248.85156 183.53906 249.15625 182.28125 249.15625 C 181.67968 249.15625 181.03645 249.08333 180.34375 248.9375 C 179.8151 244.07032 179.29948 238.96616 178.84375 233.625 C 178.57031 230.47137 178.4375 227.72658 178.4375 225.375 C 178.4375 222.75003 178.60937 220.70836 178.9375 219.25 C 179.64843 218.52086 180.29166 218.15628 180.875 218.15625 z "
       id="path3594"
       inkscape:export-filename="/Volumes/Data/Users/brian/Desktop/info/awesomeball/info@2x.png"
       inkscape:export-xdpi="89.050003"
       inkscape:export-ydpi="89.050003" />
    <path
       sodipodi:type="arc"
       style="opacity:0.95999995;fill:#414141;fill-opacity:1;fill-rule:nonzero;stroke:none"
       id="path3594-8"
       sodipodi:cx="179.80716"
       sodipodi:cy="230.09801"
       sodipodi:rx="25.253813"
       sodipodi:ry="25.253813"
       d="m 205.06097,230.09801 a 25.253813,25.253813 0 1 1 -50.50762,0 25.253813,25.253813 0 1 1 50.50762,0 z"
       transform="translate(-65.164302,94.764174)" />
    <text
       xml:space="preserve"
       style="font-size:40px;font-style:normal;font-variant:normal;font-weight:normal;font-stretch:normal;fill:#000000;fill-opacity:1;stroke:none;font-family:augie;-inkscape-font-specification:augie"
       x="110.62333"
       y="344.71375"
       id="text3596-0"><tspan
         sodipodi:role="line"
         id="tspan3598-2"
         x="110.62333"
         y="344.71375"
         style="font-size:56px;font-weight:bold;-inkscape-font-specification:Bitstream Vera Sans Bold">i</tspan></text>
    <path
       sodipodi:type="arc"
       style="opacity:0.95999995;fill:#414141;fill-opacity:1;fill-rule:nonzero;stroke:none"
       id="path3594-83"
       sodipodi:cx="179.80716"
       sodipodi:cy="230.09801"
       sodipodi:rx="25.253813"
       sodipodi:ry="25.253813"
       d="m 205.06097,230.09801 a 25.253813,25.253813 0 1 1 -50.50762,0 25.253813,25.253813 0 1 1 50.50762,0 z"
       transform="translate(51.978555,84.407031)" />
    <text
       xml:space="preserve"
       style="font-size:40px;font-style:normal;font-variant:normal;font-weight:normal;font-stretch:normal;fill:#000000;fill-opacity:1;stroke:none;font-family:augie;-inkscape-font-specification:augie"
       x="227.76619"
       y="334.3566"
       id="text3596-9"><tspan
         sodipodi:role="line"
         id="tspan3598-0"
         x="227.76619"
         y="334.3566"
         style="font-size:56px;font-weight:bold;-inkscape-font-specification:Bitstream Vera Sans Bold">i</tspan></text>
    <path
       style="opacity:0.95999995000000005;fill:#ffffff;fill-opacity:1;fill-rule:nonzero;stroke:none"
       d="m 94.270089,208.8979 c -13.9473,0 -25.25,11.3027 -25.25,25.25 0,13.9473 11.3027,25.25 25.25,25.25 13.947301,0 25.281251,-11.3027 25.281251,-25.25 0,-13.9473 -11.33395,-25.25 -25.281251,-25.25 z m -1.21875,4.5 c 0.51041,4e-5 1.33854,0.70837 2.46875,2.09375 0.63801,0.78389 0.90364,1.40108 0.8125,1.875 -0.10938,0.56514 -0.66667,0.84379 -1.6875,0.84375 -1.82292,4e-5 -3.26823,-0.49215 -4.34375,-1.53125 -0.10937,-0.10934 -0.1875,-0.32027 -0.1875,-0.59375 0,-0.78382 0.3099,-1.41402 0.875,-1.90625 0.58333,-0.51038 1.26041,-0.78121 2.0625,-0.78125 z m 1.3125,10.46875 c 0.58333,3e-5 1.23958,0.35159 1.96875,1.0625 l 0.78125,7.0625 c 0.89322,8.2396 1.31249,14.28647 1.3125,18.1875 -1e-5,1.58594 -0.0599,2.85156 -0.1875,3.78125 -0.40105,0.60156 -1.21094,0.90625 -2.46875,0.90625 -0.60157,0 -1.2448,-0.0729 -1.9375,-0.21875 -0.52865,-4.86718 -1.04427,-9.97134 -1.5,-15.3125 -0.27344,-3.15363 -0.40625,-5.89842 -0.40625,-8.25 0,-2.62497 0.17187,-4.66664 0.5,-6.125 0.71093,-0.72914 1.35416,-1.09372 1.9375,-1.09375 z"
       id="path3594-5"
       inkscape:export-filename="/Volumes/Data/Users/brian/Desktop/info/awesomeball/info_light@2x.png"
       inkscape:export-xdpi="89.050003"
       inkscape:export-ydpi="89.050003" />
  </g>
</svg>
